<svg width="512" height="512" viewBox="0 0 512 512" fill="none" xmlns="http://www.w3.org/2000/svg">
<path d="M0 0H512V512H0V0Z" fill="white"/>
<path d="M77 272.044C77 293.191 90.1413 310 106.674 310H398.326C414.859 310 428 293.191 428 272.044V98C428 80.3269 413.673 66 396 66H109C91.3269 66 77 80.3269 77 98V272.044ZM308.457 126.729C305.065 122.391 305.065 115.884 308.457 111.547C311.848 107.209 316.935 107.209 320.326 111.547L374.587 180.951C376.283 183.12 377.13 185.831 377.13 188.542C377.13 191.253 376.283 193.964 374.587 196.133L320.326 265.538C318.63 267.707 316.511 268.791 314.391 268.791C312.272 268.791 310.152 267.707 308.457 265.538C305.065 261.2 305.065 254.693 308.457 250.356L341.374 208.252C350.427 196.671 350.427 180.413 341.374 168.833L308.457 126.729ZM216.043 252.524L274.543 113.716C276.663 108.293 281.75 106.667 285.989 109.378C290.228 112.089 291.5 118.596 289.38 124.018L230.88 262.827C229.185 266.622 226.217 268.791 223.25 268.791C220.598 268.791 218.182 267.003 216.777 264.753C214.615 261.294 214.131 256.602 216.043 252.524ZM130.413 180.409L184.674 111.004C188.065 106.667 193.152 106.667 196.543 111.004C199.935 115.342 199.935 121.849 196.543 126.187L163.626 168.291C154.573 179.871 154.573 196.129 163.626 207.709L196.543 249.813C199.935 254.151 199.935 260.658 196.543 264.996C194.848 267.164 192.728 268.249 190.609 268.249C188.489 268.249 186.37 267.164 184.674 264.996L130.413 196.133C128.717 193.964 127.87 191.253 127.87 188.542C127.87 185.831 128.717 182.578 130.413 180.409Z" fill="black"/>
<path d="M0 344H512V512H0V344Z" fill="#0CDDD1"/>
<path d="M185.227 407.5H165.318C164.955 404.924 164.212 402.636 163.091 400.636C161.97 398.606 160.53 396.879 158.773 395.455C157.015 394.03 154.985 392.939 152.682 392.182C150.409 391.424 147.939 391.045 145.273 391.045C140.455 391.045 136.258 392.242 132.682 394.636C129.106 397 126.333 400.455 124.364 405C122.394 409.515 121.409 415 121.409 421.455C121.409 428.091 122.394 433.667 124.364 438.182C126.364 442.697 129.152 446.106 132.727 448.409C136.303 450.712 140.439 451.864 145.136 451.864C147.773 451.864 150.212 451.515 152.455 450.818C154.727 450.121 156.742 449.106 158.5 447.773C160.258 446.409 161.712 444.758 162.864 442.818C164.045 440.879 164.864 438.667 165.318 436.182L185.227 436.273C184.712 440.545 183.424 444.667 181.364 448.636C179.333 452.576 176.591 456.106 173.136 459.227C169.712 462.318 165.621 464.773 160.864 466.591C156.136 468.379 150.788 469.273 144.818 469.273C136.515 469.273 129.091 467.394 122.545 463.636C116.03 459.879 110.879 454.439 107.091 447.318C103.333 440.197 101.455 431.576 101.455 421.455C101.455 411.303 103.364 402.667 107.182 395.545C111 388.424 116.182 383 122.727 379.273C129.273 375.515 136.636 373.636 144.818 373.636C150.212 373.636 155.212 374.394 159.818 375.909C164.455 377.424 168.561 379.636 172.136 382.545C175.712 385.424 178.621 388.955 180.864 393.136C183.136 397.318 184.591 402.106 185.227 407.5Z" fill="white"/>
<path d="M256.841 374.909H276.523V435.364C276.523 442.152 274.902 448.091 271.659 453.182C268.447 458.273 263.947 462.242 258.159 465.091C252.371 467.909 245.629 469.318 237.932 469.318C230.205 469.318 223.447 467.909 217.659 465.091C211.871 462.242 207.371 458.273 204.159 453.182C200.947 448.091 199.341 442.152 199.341 435.364V374.909H219.023V433.682C219.023 437.227 219.795 440.379 221.341 443.136C222.917 445.894 225.129 448.061 227.977 449.636C230.826 451.212 234.144 452 237.932 452C241.75 452 245.068 451.212 247.886 449.636C250.735 448.061 252.932 445.894 254.477 443.136C256.053 440.379 256.841 437.227 256.841 433.682V374.909Z" fill="white"/>
<path d="M292.716 468V374.909H329.443C336.473 374.909 342.473 376.167 347.443 378.682C352.443 381.167 356.246 384.697 358.852 389.273C361.489 393.818 362.807 399.167 362.807 405.318C362.807 411.5 361.473 416.818 358.807 421.273C356.14 425.697 352.277 429.091 347.216 431.455C342.186 433.818 336.095 435 328.943 435H304.352V419.182H325.761C329.519 419.182 332.64 418.667 335.125 417.636C337.61 416.606 339.458 415.061 340.67 413C341.913 410.939 342.534 408.379 342.534 405.318C342.534 402.227 341.913 399.621 340.67 397.5C339.458 395.379 337.595 393.773 335.08 392.682C332.595 391.561 329.458 391 325.67 391H312.398V468H292.716ZM342.989 425.636L366.125 468H344.398L321.761 425.636H342.989Z" fill="white"/>
<path d="M376.716 468V374.909H396.398V451.773H436.307V468H376.716Z" fill="white"/>
</svg>
