<svg width="512" height="512" viewBox="0 0 512 512" fill="none" xmlns="http://www.w3.org/2000/svg">
<path fill-rule="evenodd" clip-rule="evenodd" d="M125.416 109.459H386.581V127.477H125.416V109.459ZM125.416 172.802H386.581V190.82H125.416V172.802ZM125.416 236.146H386.581V254.163H125.416V236.146ZM452.382 329.113V85.4999C452.382 61.9781 442.44 40.6003 426.421 25.1086C410.403 9.61578 388.3 0 363.98 0H68.9318H59.6172V9.0088V329.113L452.382 329.113Z" fill="#453AFE"/>
<path fill-rule="evenodd" clip-rule="evenodd" d="M452.383 338.121H59.6175H9.3146H0V347.129V502.991V512H9.3146H502.685H512V502.991V347.129V338.121H502.685H452.383ZM104.801 378.278H134.737V429.11C134.737 439.777 133.747 447.896 131.789 453.469C129.83 459.042 125.914 463.766 119.994 467.641C114.075 471.494 106.512 473.431 97.2838 473.431C87.5154 473.431 79.9528 472.169 74.596 469.6C69.2167 467.053 65.0751 463.331 62.1716 458.411C59.2456 453.513 57.5124 447.439 56.9944 440.212L85.5346 436.446C85.58 440.56 85.9623 443.63 86.66 445.632C87.3581 447.635 88.5509 449.246 90.2167 450.465C91.3645 451.292 92.9849 451.684 95.1009 451.684C98.432 451.684 100.885 450.487 102.461 448.092C104.014 445.676 104.801 441.627 104.801 435.945V378.278ZM149.435 440.843L177.863 439.123C178.47 443.586 179.731 446.982 181.622 449.333C184.682 453.121 189.094 454.993 194.811 454.993C199.065 454.993 202.351 454.035 204.67 452.098C206.965 450.16 208.113 447.918 208.113 445.371C208.113 442.954 207.033 440.778 204.827 438.862C202.621 436.946 197.534 435.14 189.522 433.442C176.422 430.59 167.081 426.824 161.499 422.1C155.872 417.376 153.059 411.368 153.059 404.053C153.059 399.242 154.499 394.693 157.38 390.426C160.261 386.159 164.583 382.806 170.368 380.347C176.152 377.909 184.075 376.69 194.136 376.69C206.493 376.69 215.923 378.91 222.406 383.351C228.888 387.792 232.737 394.867 233.975 404.554L205.818 406.143C205.074 401.942 203.499 398.872 201.091 396.957C198.705 395.063 195.396 394.105 191.187 394.105C187.699 394.105 185.088 394.802 183.332 396.238C181.576 397.653 180.698 399.395 180.698 401.441C180.698 402.921 181.419 404.249 182.859 405.446C184.278 406.687 187.609 407.819 192.898 408.886C205.952 411.607 215.293 414.372 220.943 417.158C226.592 419.945 230.711 423.384 233.277 427.52C235.843 431.635 237.148 436.25 237.148 441.365C237.148 447.352 235.416 452.881 231.994 457.931C228.573 463.004 223.779 466.835 217.612 469.447C211.467 472.06 203.701 473.366 194.338 473.366C177.908 473.366 166.518 470.318 160.194 464.18C153.846 458.062 150.268 450.291 149.435 440.843ZM248.403 425.082C248.403 409.822 252.815 397.936 261.592 389.446C270.393 380.935 282.637 376.689 298.326 376.689C314.419 376.689 326.821 380.869 335.531 389.228C344.219 397.566 348.586 409.278 348.586 424.32C348.586 435.248 346.673 444.217 342.869 451.205C339.065 458.193 333.573 463.635 326.393 467.532C319.19 471.428 310.255 473.366 299.519 473.366C288.624 473.366 279.599 471.69 272.441 468.337C265.306 464.963 259.522 459.651 255.065 452.38C250.631 445.109 248.403 436.01 248.403 425.082ZM278.294 425.213C278.294 434.661 280.094 441.431 283.718 445.567C287.342 449.681 292.293 451.749 298.528 451.749C304.943 451.749 309.917 449.725 313.428 445.697C316.939 441.648 318.718 434.399 318.718 423.95C318.718 415.133 316.872 408.712 313.203 404.641C309.535 400.592 304.56 398.567 298.258 398.567C292.248 398.567 287.409 400.614 283.763 404.75C280.117 408.864 278.294 415.7 278.294 425.213ZM364.859 378.279H392.769L429.164 430.002V378.279H457.322V471.777H429.164L392.949 420.445V471.777H364.859L364.859 378.279Z" fill="#453AFE"/>
</svg>
