<?xml version="1.0" encoding="UTF-8" standalone="no"?><!DOCTYPE svg PUBLIC "-//W3C//DTD SVG 1.1//EN" "http://www.w3.org/Graphics/SVG/1.1/DTD/svg11.dtd"><svg width="100%" height="100%" viewBox="0 0 2134 2134" version="1.1" xmlns="http://www.w3.org/2000/svg" xmlns:xlink="http://www.w3.org/1999/xlink" xml:space="preserve" xmlns:serif="http://www.serif.com/" style="fill-rule:evenodd;clip-rule:evenodd;stroke-linejoin:round;stroke-miterlimit:2;"><path d="M1962.86,1590.01l-569.155,461.598c-92.344,74.892 -218.651,94.91 -329.635,52.249l-686.692,-264.006c-110.482,-42.482 -190.778,-141.488 -209.536,-258.36l-116.538,-726.413c-18.843,-117.391 26.82,-236.844 119.164,-311.737l569.155,-461.597c92.343,-74.893 218.663,-94.922 329.635,-52.25l686.692,264.006c110.495,42.472 190.791,141.477 209.536,258.36l14.215,119.107c7.291,45.449 -15.302,113.218 -60.761,120.497c-45.45,7.292 -88.196,-44.466 -95.498,-89.928l-22.548,-123.273c-9.374,-58.43 -49.522,-107.933 -104.768,-129.18l-686.682,-263.993c-55.491,-21.343 -118.639,-11.327 -164.818,26.124l-569.155,461.598c-46.178,37.451 -69.015,97.172 -59.588,155.873l116.551,726.403c9.374,58.43 49.522,107.933 104.768,129.18l686.682,263.993c55.491,21.343 118.639,11.327 164.818,-26.124l569.155,-461.598c46.178,-37.451 69.015,-97.172 59.588,-155.873c-7.292,-45.449 23.633,-88.196 69.095,-95.497c45.449,-7.292 88.205,23.645 95.497,69.094c18.83,117.401 -26.833,236.854 -119.177,311.747Zm-507.797,-838.335c-173.683,-214.154 -489.233,-247.093 -703.4,-73.399c-214.153,173.684 -247.069,489.236 -73.386,703.39c173.684,214.154 489.223,247.08 703.377,73.396c214.167,-173.693 247.093,-489.233 73.409,-703.387Zm-129.47,105.004c115.789,142.769 93.837,353.136 -48.932,468.925c-142.769,115.789 -353.137,93.838 -468.926,-48.932c-115.789,-142.769 -93.837,-353.136 48.932,-468.925c142.769,-115.789 353.137,-93.838 468.926,48.932Z" style="fill:url(#_Linear1);fill-rule:nonzero;"/><defs><linearGradient id="_Linear1" x1="0" y1="0" x2="1" y2="0" gradientUnits="userSpaceOnUse" gradientTransform="matrix(1656.66,-1343.59,1343.59,1656.66,238.118,1738.44)"><stop offset="0" style="stop-color:#00f2fe;stop-opacity:1"/><stop offset="0.02" style="stop-color:#03effe;stop-opacity:1"/><stop offset="0.29" style="stop-color:#24d2fe;stop-opacity:1"/><stop offset="0.55" style="stop-color:#3cbdfe;stop-opacity:1"/><stop offset="0.8" style="stop-color:#4ab0fe;stop-opacity:1"/><stop offset="1" style="stop-color:#4facfe;stop-opacity:1"/></linearGradient></defs></svg>