<?xml version="1.0" encoding="UTF-8" standalone="no"?><!DOCTYPE svg PUBLIC "-//W3C//DTD SVG 1.1//EN" "http://www.w3.org/Graphics/SVG/1.1/DTD/svg11.dtd"><svg width="100%" height="100%" viewBox="0 0 2134 2134" version="1.1" xmlns="http://www.w3.org/2000/svg" xmlns:xlink="http://www.w3.org/1999/xlink" xml:space="preserve" xmlns:serif="http://www.serif.com/" style="fill-rule:evenodd;clip-rule:evenodd;stroke-linejoin:round;stroke-miterlimit:2;"><path d="M2001.42,1517.68l-530.892,505.137c-86.135,81.957 -210.465,111.895 -324.474,78.139l-705.41,-208.906c-113.494,-33.618 -201.364,-125.967 -229.3,-240.991l-173.587,-714.93c-28.062,-115.534 8.017,-238.223 94.153,-320.18l530.892,-505.137c86.135,-81.957 210.477,-111.907 324.474,-78.139l705.41,208.906c113.506,33.606 201.376,125.956 229.3,240.991l29.067,101.101c10.861,44.731 -8.256,102.31 -52.998,113.159c-44.731,10.861 -89.787,-8.254 -100.659,-52.997l-37.4,-121.934c-13.963,-57.506 -57.897,-103.681 -114.65,-120.496l-705.399,-208.894c-57.004,-16.89 -119.163,-1.915 -162.237,39.069l-530.892,505.137c-43.074,40.985 -61.119,102.323 -47.082,160.096l173.598,714.919c13.963,57.506 57.898,103.681 114.65,120.495l705.399,208.895c57.004,16.89 119.164,1.915 162.237,-39.069l530.892,-505.138c43.074,-40.984 61.119,-102.322 47.083,-160.095c-10.861,-44.731 16.588,-89.788 61.33,-100.66c44.731,-10.861 89.799,16.6 100.66,61.331c28.05,115.545 -8.029,238.234 -94.165,320.191Zm-572.467,-795.578c-190.066,-199.757 -507.232,-207.653 -707.001,-17.576c-199.756,190.066 -207.629,507.233 -17.563,706.99c190.066,199.756 507.221,207.641 706.978,17.575c199.768,-190.078 207.652,-507.233 17.586,-706.989Zm-120.766,114.908c126.71,133.171 121.454,344.615 -11.717,471.326c-133.171,126.71 -344.616,121.454 -471.326,-11.717c-126.711,-133.171 -121.455,-344.615 11.716,-471.326c133.171,-126.711 344.616,-121.454 471.327,11.717Z" style="fill:url(#_Linear1);fill-rule:nonzero;"/><defs><linearGradient id="_Linear1" x1="0" y1="0" x2="1" y2="0" gradientUnits="userSpaceOnUse" gradientTransform="matrix(1545.28,-1470.32,1470.32,1545.28,293.808,1801.97)"><stop offset="0" style="stop-color:#00f2fe;stop-opacity:1"/><stop offset="0.02" style="stop-color:#03effe;stop-opacity:1"/><stop offset="0.29" style="stop-color:#24d2fe;stop-opacity:1"/><stop offset="0.55" style="stop-color:#3cbdfe;stop-opacity:1"/><stop offset="0.8" style="stop-color:#4ab0fe;stop-opacity:1"/><stop offset="1" style="stop-color:#4facfe;stop-opacity:1"/></linearGradient></defs></svg>