<svg height="512pt" viewBox="0 -23 512.002 512" width="512pt" xmlns="http://www.w3.org/2000/svg"><path d="m343.9375 466.070312h-175.875c-28.535156 0-55.105469-15.363281-69.34375-40.09375l-88.089844-153.023437c-14.171875-24.621094-14.171875-55.214844 0-79.835937l88.09375-153.023438c14.234375-24.730469 40.804688-40.09375 69.339844-40.09375h175.875c28.535156 0 55.109375 15.363281 69.34375 40.09375l88.089844 153.023438c14.175781 24.621093 14.175781 55.214843 0 79.835937l-42.234375 73.367187c-5.511719 9.574219-17.742188 12.871094-27.316407 7.355469-9.574218-5.511719-12.867187-17.738281-7.355468-27.316406l42.234375-73.367187c7.085937-12.308594 7.085937-27.605469 0-39.917969l-88.089844-153.019531c-7.117187-12.367188-20.402344-20.046876-34.671875-20.046876h-175.875c-14.269531 0-27.554688 7.679688-34.671875 20.046876l-88.089844 153.023437c-7.085937 12.308594-7.085937 27.605469 0 39.917969l88.089844 153.019531c7.117187 12.367187 20.402344 20.046875 34.671875 20.046875h175.875c14.269531 0 27.554688-7.679688 34.671875-20.046875 5.511719-9.574219 17.738281-12.867187 27.316406-7.355469 9.574219 5.511719 12.867188 17.742188 7.355469 27.316406-14.238281 24.730469-40.808594 40.09375-69.34375 40.09375zm32.082031-233.035156c0-66.175781-53.839843-120.019531-120.019531-120.019531-66.175781 0-120.015625 53.84375-120.015625 120.019531 0 66.175782 53.839844 120.015625 120.015625 120.015625 66.179688 0 120.019531-53.839843 120.019531-120.015625zm-40.007812 0c0 44.117188-35.894531 80.011719-80.011719 80.011719s-80.011719-35.894531-80.011719-80.011719c0-44.117187 35.894531-80.011718 80.011719-80.011718s80.011719 35.894531 80.011719 80.011718zm0 0"/></svg>